<svg version="1.0" xmlns="http://www.w3.org/2000/svg"
 width="1562.000000pt" height="1562.000000pt" viewBox="0 0 1562.000000 1562.000000"
 preserveAspectRatio="xMidYMid meet">

<g transform="translate(0.000000,1562.000000) scale(0.100000,-0.100000)"
fill="#000000" stroke="none">
<path d="M0 7810 l0 -7810 7810 0 7810 0 0 7810 0 7810 -7810 0 -7810 0 0
-7810z m7827 1602 c7 -4 39 -68 72 -142 33 -74 64 -136 69 -138 5 -1 57 25
116 59 151 87 148 92 103 -181 -20 -116 -41 -218 -48 -226 -17 -21 -631 -21
-652 0 -13 14 -78 370 -77 429 0 15 6 30 14 33 8 3 62 -22 120 -55 58 -34 109
-61 114 -61 4 0 31 55 61 123 72 166 80 177 108 159z m-837 -457 l0 -25 -2190
0 -2190 0 0 25 0 25 2190 0 2190 0 0 -25z m6020 0 l0 -25 -2185 0 -2185 0 0
25 0 25 2185 0 2185 0 0 -25z m-9855 -704 c144 -64 203 -220 144 -378 -27 -69
-98 -145 -155 -162 -21 -7 -45 -15 -53 -17 -10 -3 -1 -18 31 -52 24 -26 79
-95 121 -153 41 -58 97 -129 123 -158 53 -59 135 -111 177 -111 15 0 27 -4 27
-10 0 -15 -120 -12 -178 5 -96 29 -145 78 -305 307 -92 133 -154 198 -187 198
-11 0 -20 4 -20 9 0 4 35 11 78 13 121 9 182 42 225 123 33 61 30 181 -6 252
-45 88 -102 112 -259 113 l-88 0 0 -476 0 -476 29 -29 c17 -17 40 -29 55 -29
14 0 26 -4 26 -10 0 -6 -62 -10 -165 -10 -103 0 -165 4 -165 10 0 6 14 10 30
10 39 0 77 36 85 81 3 19 5 229 3 467 l-3 434 -33 29 c-18 16 -44 29 -60 30
-24 0 -25 1 -7 10 11 5 124 7 250 6 213 -3 234 -5 280 -26z m3882 6 c183 -52
315 -181 367 -357 20 -66 22 -235 5 -306 -41 -172 -159 -300 -333 -363 -70
-25 -77 -26 -393 -29 -228 -3 -323 0 -323 7 0 6 12 11 26 11 15 0 38 12 55 29
l29 29 0 464 0 465 -23 21 c-13 12 -37 25 -55 28 -18 4 -32 11 -32 17 0 16
613 2 677 -16z m2760 -430 c90 -171 180 -345 202 -386 l39 -75 194 387 c106
213 197 386 203 384 5 -2 37 -190 71 -418 33 -228 64 -424 68 -436 10 -32 54
-63 87 -63 16 0 29 -4 29 -10 0 -6 -59 -10 -157 -10 -94 0 -153 4 -147 9 5 5
18 11 28 13 42 7 42 24 1 357 -22 176 -43 317 -46 313 -20 -22 -308 -606 -323
-654 -10 -32 -21 -58 -25 -58 -3 0 -84 150 -179 333 -94 183 -178 341 -185
351 -11 15 -18 -31 -47 -294 -37 -333 -36 -342 14 -348 14 -2 26 -8 26 -13 0
-5 -60 -9 -140 -9 -87 0 -140 4 -140 10 0 6 15 10 34 10 22 0 45 9 62 23 26
22 28 33 85 438 64 448 66 459 77 459 4 0 80 -141 169 -313z m1698 -122 c202
-446 224 -485 280 -485 13 0 27 -4 30 -10 4 -7 -50 -10 -154 -10 -101 0 -161
4 -161 10 0 6 9 10 19 10 27 0 51 27 51 56 0 13 -19 72 -42 129 l-43 105 -195
0 -196 0 -43 -102 c-24 -57 -44 -115 -44 -130 0 -35 19 -58 49 -58 13 0 24 -4
24 -10 0 -6 -57 -10 -151 -10 -138 0 -182 9 -111 23 46 9 77 42 116 124 77
159 334 719 347 756 7 20 17 36 22 34 4 -1 95 -196 202 -432z m752 245 c109
-102 285 -268 393 -370 l195 -185 3 318 c3 362 2 368 -68 387 -22 6 -40 13
-40 15 0 3 66 5 148 4 144 -1 146 -1 100 -16 -27 -8 -53 -23 -58 -34 -8 -13
-10 -163 -8 -454 2 -239 1 -435 -2 -435 -3 0 -183 168 -400 374 l-395 374 -3
-330 c-2 -329 -2 -332 20 -355 14 -15 33 -23 55 -23 18 0 33 -4 33 -10 0 -6
-55 -10 -145 -10 -90 0 -145 4 -145 10 0 6 13 10 29 10 16 0 39 9 52 19 l24
19 0 441 c0 243 3 440 7 439 4 -2 96 -86 205 -188z m-8267 154 c-25 -7 -55
-25 -67 -39 -23 -26 -23 -26 -23 -406 l0 -381 29 -29 c22 -21 39 -29 65 -29
20 0 36 -4 36 -10 0 -6 -65 -10 -175 -10 -110 0 -175 4 -175 10 0 6 15 10 34
10 21 0 42 9 60 25 l26 24 0 394 c0 445 6 414 -81 441 -41 13 -32 14 136 14
169 0 177 -1 135 -14z m566 2 c-79 -25 -76 -9 -76 -448 l0 -389 25 -24 c13
-14 35 -25 49 -25 14 0 28 -4 31 -10 4 -7 -50 -10 -155 -10 -105 0 -159 3
-155 10 3 6 17 10 31 10 14 0 36 11 49 25 l25 24 0 389 c0 438 3 418 -75 446
-38 14 -30 15 125 14 144 0 160 -2 126 -12z m559 4 c-11 -5 -38 -11 -60 -15
-35 -5 -54 -21 -149 -118 -59 -62 -144 -151 -187 -198 l-79 -87 177 -193 c246
-268 246 -268 293 -275 72 -12 45 -27 -36 -21 -127 9 -153 28 -356 252 -98
107 -178 199 -178 204 0 5 74 96 165 203 91 106 165 201 165 211 0 11 -13 24
-32 32 -30 13 -19 14 132 14 102 0 157 -4 145 -9z m525 0 c-8 -5 -25 -10 -38
-10 -13 0 -34 -11 -47 -25 l-25 -24 0 -390 0 -389 31 -26 c18 -15 43 -26 60
-26 16 0 29 -4 29 -10 0 -6 -63 -10 -170 -10 -107 0 -170 4 -170 10 0 6 14 10
31 10 20 0 40 10 60 29 l29 29 0 385 0 385 -24 23 c-13 13 -41 28 -62 35 -34
10 -15 12 136 13 116 0 170 -3 160 -9z m2300 0 c-8 -5 -21 -10 -29 -10 -8 0
-25 -10 -38 -22 -22 -21 -23 -26 -23 -210 l0 -188 280 0 280 0 0 188 c0 212 0
211 -76 235 -38 12 -37 12 44 15 45 2 119 2 165 0 l82 -3 -42 -13 c-75 -23
-73 -9 -73 -445 l0 -388 26 -24 c16 -15 39 -25 55 -25 16 0 29 -4 29 -10 0 -6
-58 -10 -155 -10 -97 0 -155 4 -155 10 0 6 11 10 25 10 14 0 37 11 50 25 25
24 25 26 25 205 l0 180 -280 0 -280 0 0 -180 c0 -179 0 -181 25 -205 13 -14
36 -25 50 -25 14 0 25 -4 25 -10 0 -6 -58 -10 -155 -10 -97 0 -155 4 -155 10
0 6 13 10 29 10 20 0 37 9 55 31 l26 31 0 374 c0 425 0 425 -70 444 -22 6 -40
13 -40 15 0 3 71 5 158 5 105 0 152 -4 142 -10z m1260 0 c-8 -5 -25 -10 -37
-10 -12 0 -35 -11 -50 -24 l-28 -24 0 -392 0 -392 30 -24 c18 -14 43 -24 63
-24 17 0 32 -4 32 -10 0 -6 -65 -10 -175 -10 -110 0 -175 4 -175 10 0 6 15 10
34 10 22 0 45 8 60 23 l26 22 0 394 c1 444 5 419 -79 445 -44 13 -37 14 134
15 120 0 175 -3 165 -9z m-2970 -1574 c44 -29 80 -96 80 -149 0 -100 -80 -179
-181 -179 -68 1 -116 27 -151 81 -26 41 -29 53 -26 107 5 74 35 120 100 153
54 28 124 23 178 -13z m486 23 c24 -6 44 -13 44 -14 0 -2 -3 -10 -6 -19 -5
-12 -18 -14 -74 -9 -79 7 -107 -6 -140 -60 -57 -92 9 -207 119 -207 61 0 71 7
71 51 0 38 -1 39 -35 39 -28 0 -35 4 -35 20 0 18 7 20 55 20 l55 0 0 -74 0
-74 -36 -12 c-89 -30 -194 0 -233 65 -43 71 -32 175 24 228 55 52 111 66 191
46z m514 -23 c65 -43 97 -140 69 -213 -12 -31 -54 -79 -84 -95 -88 -48 -202
-12 -245 77 -48 100 -5 210 101 255 37 16 118 3 159 -24z m1603 12 c10 -5 16
-15 14 -21 -4 -13 -20 -13 -77 -2 -48 9 -86 -19 -77 -57 5 -19 23 -33 71 -56
78 -37 101 -67 93 -120 -9 -56 -45 -82 -113 -82 -63 0 -116 22 -108 45 7 18 3
18 53 0 77 -27 133 6 117 68 -4 17 -22 31 -64 50 -74 34 -96 57 -94 103 2 42
16 62 57 80 31 14 94 10 128 -8z m686 11 c19 -7 31 -18 31 -29 0 -17 -7 -18
-75 -13 l-75 6 -40 -40 c-36 -36 -40 -46 -40 -89 0 -105 83 -166 188 -138 18
5 22 13 22 45 0 38 -1 39 -35 39 -28 0 -35 4 -35 20 0 18 7 20 55 20 l55 0 0
-74 0 -74 -36 -12 c-56 -19 -129 -14 -174 11 -47 27 -64 50 -80 109 -38 141
99 268 239 219z m514 -249 c4 0 7 56 7 125 0 118 1 125 20 125 19 0 20 -7 20
-182 l-1 -183 -127 133 c-70 72 -130 132 -134 132 -5 0 -8 -56 -8 -125 0 -118
-1 -125 -20 -125 -19 0 -20 7 -20 183 l1 182 127 -133 c70 -73 130 -132 135
-132z m-4423 95 l0 -155 90 0 c83 0 90 -1 90 -20 0 -19 -7 -20 -110 -20 l-110
0 0 175 c0 168 1 175 20 175 19 0 20 -7 20 -155z m2333 140 c20 -8 48 -31 64
-52 25 -32 28 -45 28 -109 0 -86 -17 -117 -85 -151 -35 -18 -61 -23 -122 -23
l-78 0 0 175 0 175 79 0 c47 0 93 -6 114 -15z m517 -5 c0 -19 -7 -20 -95 -20
l-95 0 0 -55 0 -55 85 0 c78 0 85 -2 85 -20 0 -17 -8 -19 -82 -22 l-83 -3 -3
-57 -3 -57 98 -3 c84 -3 98 -5 101 -20 3 -16 -8 -18 -117 -18 l-121 0 0 175 0
175 115 0 c108 0 115 -1 115 -20z m630 -155 l0 -175 -25 0 -25 0 0 175 0 175
25 0 25 0 0 -175z"/>
<path d="M7780 9235 c-17 -38 -43 -96 -57 -127 -17 -39 -32 -58 -43 -58 -10 0
-57 22 -106 49 -49 28 -90 49 -91 47 -1 -1 9 -67 22 -147 14 -79 25 -147 25
-152 0 -4 127 -6 282 -5 l282 3 23 130 c34 189 36 185 -67 125 -47 -27 -93
-50 -103 -50 -13 0 -29 24 -58 88 -22 48 -48 105 -58 127 l-19 40 -32 -70z"/>
<path d="M6570 7740 l0 -491 208 3 c247 4 285 15 382 105 208 192 196 611 -22
783 -90 72 -136 83 -365 88 l-203 4 0 -492z"/>
<path d="M11267 7939 c-8 -19 -46 -110 -86 -202 -39 -92 -71 -170 -71 -172 0
-3 77 -5 170 -5 94 0 170 2 170 4 0 6 -159 399 -164 403 -3 3 -11 -10 -19 -28z"/>
<path d="M6082 6523 c-35 -7 -90 -68 -98 -108 -9 -51 17 -114 61 -144 71 -48
183 -8 201 73 18 78 -12 144 -76 170 -41 16 -47 17 -88 9z"/>
<path d="M7085 6523 c-39 -10 -74 -44 -91 -88 -22 -59 -8 -110 41 -154 30 -26
44 -31 85 -31 147 0 186 210 49 264 -40 16 -49 17 -84 9z"/>
<path d="M7790 6385 l0 -135 48 0 c114 0 180 94 138 195 -20 48 -68 75 -133
75 l-53 0 0 -135z"/>
</g>
</svg>
